<svg width="119" height="26" viewBox="0 0 119 26" fill="none" xmlns="http://www.w3.org/2000/svg">
<path d="M10.5582 18.8974L10.2802 19.166L10.0156 18.8921L10.0156 18.8921L10.2842 18.6234L10.2925 18.6317L10.5582 18.8974Z" fill="#181B80" stroke="#181B80" stroke-width="2"/>
<path d="M7.63223 11.5113C7.69823 11.5749 7.7509 11.651 7.78718 11.7351C7.82346 11.8192 7.84262 11.9098 7.84354 12.0014C7.84447 12.093 7.82713 12.1839 7.79256 12.2688C7.75798 12.3536 7.70685 12.4307 7.64215 12.4956C7.57745 12.5605 7.50048 12.6118 7.41572 12.6467C7.33097 12.6815 7.24013 12.6991 7.1485 12.6984C7.05688 12.6977 6.9663 12.6788 6.88206 12.6428C6.79782 12.6067 6.7216 12.5543 6.65785 12.4885C6.59369 12.4244 6.54277 12.3483 6.50802 12.2646C6.47326 12.1808 6.45534 12.0911 6.45527 12.0004C6.45514 11.8173 6.52776 11.6416 6.65716 11.512C6.78655 11.3824 6.96212 11.3096 7.14524 11.3094C7.32836 11.3093 7.50404 11.3819 7.63361 11.5113H7.63223ZM9.58515 9.5598C9.65106 9.62345 9.70363 9.6996 9.73979 9.78379C9.77596 9.86798 9.795 9.95853 9.79579 10.0502C9.79659 10.1418 9.77913 10.2327 9.74443 10.3175C9.70973 10.4023 9.65849 10.4793 9.5937 10.5441C9.52891 10.6089 9.45186 10.6601 9.36705 10.6948C9.28224 10.7295 9.19137 10.747 9.09975 10.7462C9.00812 10.7454 8.91757 10.7264 8.83337 10.6902C8.74918 10.654 8.67304 10.6015 8.60938 10.5356C8.48368 10.4054 8.41412 10.2311 8.41569 10.0502C8.41727 9.86923 8.48984 9.69615 8.61779 9.5682C8.74573 9.44026 8.91881 9.36768 9.09975 9.36611C9.28068 9.36454 9.455 9.43409 9.58515 9.5598ZM11.5381 7.60826C11.6021 7.67242 11.6529 7.74858 11.6876 7.83237C11.7222 7.91617 11.74 8.00596 11.7399 8.09663C11.7399 8.18731 11.722 8.27708 11.6872 8.36082C11.6524 8.44457 11.6015 8.52065 11.5374 8.58472C11.4732 8.64879 11.3971 8.69959 11.3133 8.73423C11.2295 8.76887 11.1397 8.78667 11.049 8.78661C10.9583 8.78654 10.8686 8.76862 10.7848 8.73386C10.7011 8.6991 10.625 8.64819 10.5609 8.58403C10.4352 8.45388 10.3657 8.27957 10.3672 8.09863C10.3688 7.91769 10.4414 7.74461 10.5693 7.61667C10.6973 7.48872 10.8703 7.41615 11.0513 7.41458C11.2322 7.413 11.4065 7.48256 11.5367 7.60826H11.5381ZM11.5381 15.4158C11.6021 15.4799 11.6529 15.5561 11.6876 15.6399C11.7222 15.7237 11.74 15.8135 11.7399 15.9041C11.7399 15.9948 11.722 16.0846 11.6872 16.1683C11.6524 16.2521 11.6015 16.3282 11.5374 16.3922C11.4732 16.4563 11.3971 16.5071 11.3133 16.5417C11.2295 16.5764 11.1397 16.5942 11.049 16.5941C10.9583 16.5941 10.8686 16.5761 10.7848 16.5414C10.7011 16.5066 10.625 16.4557 10.5609 16.3915C10.4352 16.2614 10.3657 16.0871 10.3672 15.9061C10.3688 15.7252 10.4414 15.5521 10.5693 15.4242C10.6973 15.2962 10.8703 15.2237 11.0513 15.2221C11.2322 15.2205 11.4065 15.2901 11.5367 15.4158H11.5381ZM13.4882 13.4629C13.6178 13.5923 13.6907 13.7678 13.6908 13.9509C13.6909 14.1341 13.6183 14.3097 13.4889 14.4393C13.3595 14.5689 13.1839 14.6418 13.0008 14.6419C12.8177 14.642 12.642 14.5694 12.5124 14.44C12.3867 14.3099 12.3172 14.1355 12.3188 13.9546C12.3203 13.7737 12.3929 13.6006 12.5209 13.4726C12.6488 13.3447 12.8219 13.2721 13.0028 13.2706C13.1837 13.269 13.3581 13.3385 13.4882 13.4642V13.4629ZM15.4397 11.5113C15.5057 11.5749 15.5584 11.651 15.5947 11.7351C15.631 11.8192 15.6501 11.9098 15.6511 12.0014C15.652 12.093 15.6346 12.1839 15.6001 12.2688C15.5655 12.3536 15.5144 12.4307 15.4497 12.4956C15.385 12.5605 15.308 12.6118 15.2232 12.6467C15.1385 12.6815 15.0476 12.6991 14.956 12.6984C14.8644 12.6977 14.7738 12.6788 14.6896 12.6428C14.6053 12.6067 14.5291 12.5543 14.4654 12.4885C14.4012 12.4244 14.3503 12.3483 14.3155 12.2646C14.2808 12.1808 14.2628 12.0911 14.2628 12.0004C14.2627 11.8173 14.3353 11.6416 14.4647 11.512C14.5941 11.3824 14.7696 11.3096 14.9528 11.3094C15.1359 11.3093 15.3115 11.3819 15.4411 11.5113H15.4397ZM9.58515 13.4629C9.64931 13.5269 9.70022 13.603 9.73498 13.6868C9.76974 13.7705 9.78766 13.8603 9.78772 13.9509C9.78779 14.0416 9.76999 14.1314 9.73535 14.2152C9.70071 14.299 9.64991 14.3752 9.58584 14.4393C9.52177 14.5035 9.44569 14.5544 9.36194 14.5891C9.2782 14.6239 9.18842 14.6418 9.09775 14.6419C9.00708 14.642 8.91728 14.6242 8.83349 14.5895C8.74969 14.5549 8.67354 14.5041 8.60938 14.44C8.48368 14.3099 8.41412 14.1355 8.41569 13.9546C8.41727 13.7737 8.48984 13.6006 8.61779 13.4726C8.74573 13.3447 8.91881 13.2721 9.09975 13.2706C9.28068 13.269 9.455 13.3385 9.58515 13.4642V13.4629ZM11.5381 11.5113C11.6022 11.5755 11.6531 11.6517 11.6878 11.7355C11.7226 11.8193 11.7404 11.9092 11.7404 11.9999C11.7404 12.0906 11.7226 12.1805 11.6878 12.2643C11.6531 12.3481 11.6022 12.4243 11.5381 12.4885C11.4739 12.5526 11.3977 12.6035 11.3139 12.6383C11.2301 12.673 11.1402 12.6908 11.0495 12.6908C10.9587 12.6908 10.8689 12.673 10.7851 12.6383C10.7012 12.6035 10.6251 12.5526 10.5609 12.4885C10.4968 12.4244 10.4458 12.3483 10.4111 12.2646C10.3763 12.1808 10.3584 12.0911 10.3583 12.0004C10.3582 11.8173 10.4308 11.6416 10.5602 11.512C10.6896 11.3824 10.8652 11.3096 11.0483 11.3094C11.2314 11.3093 11.4071 11.3819 11.5367 11.5113H11.5381ZM13.4882 9.5598C13.5541 9.62345 13.6067 9.6996 13.6429 9.78379C13.679 9.86798 13.6981 9.95853 13.6989 10.0502C13.6997 10.1418 13.6822 10.2327 13.6475 10.3175C13.6128 10.4023 13.5616 10.4793 13.4968 10.5441C13.432 10.6089 13.3549 10.6601 13.2701 10.6948C13.1853 10.7295 13.0944 10.747 13.0028 10.7462C12.9112 10.7454 12.8206 10.7264 12.7364 10.6902C12.6522 10.654 12.5761 10.6015 12.5124 10.5356C12.3867 10.4054 12.3172 10.2311 12.3188 10.0502C12.3203 9.86923 12.3929 9.69615 12.5209 9.5682C12.6488 9.44026 12.8219 9.36768 13.0028 9.36611C13.1837 9.36454 13.3581 9.43409 13.4882 9.5598Z" fill="#181B80"/>
<path d="M2.55173 3.55125C1.77551 4.3277 1.33946 5.38065 1.33946 6.47855C1.33946 7.57645 1.77551 8.6294 2.55173 9.40585L4.13476 10.9875L10.0142 5.10668L8.40632 3.55125C7.62987 2.77503 6.57692 2.33898 5.47902 2.33898C4.38113 2.33898 3.32818 2.77503 2.55173 3.55125ZM10.9996 6.07416L5.11191 11.9619L11.0424 17.8814L16.9246 11.9991L10.9996 6.07416ZM17.8921 12.9832L12.0168 18.8585L13.5943 20.4471C14.3785 21.1828 15.4183 21.5846 16.4935 21.5674C17.5687 21.5502 18.595 21.1153 19.3553 20.3549C20.1156 19.5944 20.5502 18.5679 20.5672 17.4927C20.5841 16.4175 20.1821 15.3779 19.4461 14.5938L19.4379 14.5856L17.8907 12.9846L17.8921 12.9832ZM10.5525 19.3429L1.57596 10.383C0.559107 9.34445 -0.00715379 7.94678 6.75085e-05 6.49333C0.00728881 5.03988 0.58741 3.64791 1.61453 2.61952C2.64165 1.59113 4.0329 1.00928 5.48634 1.00026C6.93978 0.991243 8.33814 1.55577 9.37795 2.57134L11.4882 4.60982L18.3972 11.5189L20.4288 13.6208C21.4444 14.6606 22.0089 16.059 21.9999 17.5124C21.9909 18.9659 21.409 20.3571 20.3806 21.3842C19.3522 22.4114 17.9603 22.9915 16.5068 22.9987C15.0534 23.0059 13.6557 22.4397 12.6172 21.4228L12.6144 21.4214L10.5552 19.3443L10.5525 19.3429Z" fill="#181B80"/>
<path d="M10.511 15.3663C10.5745 15.3003 10.6506 15.2476 10.7348 15.2113C10.8189 15.175 10.9094 15.1559 11.001 15.1549C11.0927 15.154 11.1836 15.1713 11.2684 15.2059C11.3533 15.2405 11.4304 15.2916 11.4953 15.3563C11.5601 15.421 11.6115 15.498 11.6463 15.5828C11.6811 15.6675 11.6987 15.7584 11.6981 15.85C11.6974 15.9416 11.6785 16.0322 11.6424 16.1164C11.6064 16.2007 11.5539 16.2769 11.4881 16.3406C11.4241 16.4048 11.348 16.4557 11.2642 16.4905C11.1805 16.5252 11.0907 16.5431 11 16.5432C10.8169 16.5433 10.6413 16.4707 10.5117 16.3413C10.3821 16.2119 10.3092 16.0364 10.3091 15.8532C10.309 15.6701 10.3816 15.4944 10.511 15.3649L10.511 15.3663ZM8.55945 13.4133C8.62311 13.3474 8.69925 13.2949 8.78345 13.2587C8.86764 13.2225 8.95819 13.2035 9.04982 13.2027C9.14145 13.2019 9.23231 13.2194 9.31712 13.2541C9.40193 13.2888 9.47898 13.34 9.54377 13.4048C9.60856 13.4696 9.6598 13.5466 9.6945 13.6314C9.7292 13.7162 9.74666 13.8071 9.74586 13.8987C9.74507 13.9904 9.72603 14.0809 9.68986 14.1651C9.6537 14.2493 9.60113 14.3254 9.53522 14.3891C9.40507 14.5148 9.23075 14.5844 9.04982 14.5828C8.86888 14.5812 8.6958 14.5086 8.56786 14.3807C8.43991 14.2528 8.36734 14.0797 8.36576 13.8987C8.36419 13.7178 8.43375 13.5435 8.55945 13.4133ZM6.60792 11.4604C6.67208 11.3964 6.74823 11.3455 6.83202 11.3109C6.91582 11.2763 7.00562 11.2585 7.09629 11.2585C7.18696 11.2586 7.27673 11.2765 7.36048 11.3113C7.44422 11.346 7.5203 11.397 7.58437 11.4611C7.64844 11.5253 7.69925 11.6014 7.73389 11.6852C7.76853 11.769 7.78632 11.8588 7.78626 11.9495C7.7862 12.0402 7.76827 12.1299 7.73351 12.2137C7.69876 12.2974 7.64784 12.3735 7.58368 12.4376C7.45353 12.5633 7.27922 12.6328 7.09828 12.6313C6.91735 12.6297 6.74427 12.5571 6.61632 12.4292C6.48838 12.3012 6.4158 12.1281 6.41423 11.9472C6.41266 11.7663 6.48221 11.592 6.60792 11.4618L6.60792 11.4604ZM14.4154 11.4604C14.4796 11.3964 14.5557 11.3455 14.6395 11.3109C14.7233 11.2763 14.8131 11.2585 14.9038 11.2585C14.9945 11.2586 15.0842 11.2765 15.168 11.3113C15.2517 11.346 15.3278 11.397 15.3919 11.4611C15.456 11.5253 15.5068 11.6014 15.5414 11.6852C15.576 11.769 15.5938 11.8588 15.5938 11.9495C15.5937 12.0402 15.5758 12.1299 15.541 12.2137C15.5063 12.2974 15.4554 12.3735 15.3912 12.4376C15.261 12.5633 15.0867 12.6328 14.9058 12.6313C14.7249 12.6297 14.5518 12.5571 14.4238 12.4292C14.2959 12.3012 14.2233 12.1281 14.2217 11.9472C14.2202 11.7663 14.2897 11.592 14.4154 11.4618L14.4154 11.4604ZM12.4625 9.51027C12.5919 9.38069 12.7675 9.30783 12.9506 9.3077C13.1337 9.30757 13.3094 9.38019 13.439 9.50958C13.5686 9.63898 13.6414 9.81455 13.6415 9.99767C13.6417 10.1808 13.5691 10.3565 13.4397 10.486C13.3095 10.6117 13.1352 10.6813 12.9543 10.6797C12.7733 10.6782 12.6002 10.6056 12.4723 10.4776C12.3444 10.3497 12.2718 10.1766 12.2702 9.99567C12.2686 9.81474 12.3382 9.64042 12.4639 9.51027L12.4625 9.51027ZM10.511 7.55874C10.5745 7.49275 10.6506 7.44007 10.7348 7.40379C10.8189 7.36751 10.9094 7.34835 11.001 7.34743C11.0927 7.34651 11.1836 7.36384 11.2684 7.39842C11.3533 7.43299 11.4304 7.48412 11.4953 7.54882C11.5601 7.61352 11.6115 7.69049 11.6463 7.77525C11.6811 7.86 11.6987 7.95084 11.6981 8.04247C11.6974 8.13409 11.6785 8.22467 11.6424 8.30891C11.6064 8.39315 11.5539 8.46937 11.4881 8.53313C11.4241 8.59729 11.348 8.6482 11.2642 8.68296C11.1805 8.71771 11.0907 8.73564 11 8.7357C10.8169 8.73583 10.6413 8.66321 10.5117 8.53382C10.3821 8.40442 10.3092 8.22885 10.3091 8.04573C10.309 7.86261 10.3816 7.68694 10.511 7.55736L10.511 7.55874ZM12.4625 13.4133C12.5266 13.3492 12.6027 13.2983 12.6864 13.2635C12.7702 13.2287 12.8599 13.2108 12.9506 13.2108C13.0413 13.2107 13.1311 13.2285 13.2149 13.2631C13.2987 13.2978 13.3748 13.3486 13.439 13.4126C13.5031 13.4767 13.554 13.5528 13.5888 13.6365C13.6236 13.7203 13.6415 13.8101 13.6415 13.9007C13.6416 13.9914 13.6238 14.0812 13.5892 14.165C13.5545 14.2488 13.5037 14.3249 13.4397 14.3891C13.3095 14.5148 13.1352 14.5844 12.9543 14.5828C12.7733 14.5812 12.6002 14.5086 12.4723 14.3807C12.3444 14.2528 12.2718 14.0797 12.2702 13.8987C12.2686 13.7178 12.3382 13.5435 12.4639 13.4133L12.4625 13.4133ZM10.511 11.4604C10.5751 11.3963 10.6513 11.3454 10.7351 11.3106C10.819 11.2759 10.9088 11.2581 10.9996 11.2581C11.0903 11.2581 11.1801 11.2759 11.264 11.3106C11.3478 11.3454 11.424 11.3963 11.4881 11.4604C11.5523 11.5246 11.6032 11.6008 11.6379 11.6846C11.6726 11.7684 11.6905 11.8583 11.6905 11.949C11.6905 12.0397 11.6726 12.1296 11.6379 12.2134C11.6032 12.2972 11.5523 12.3734 11.4881 12.4376C11.4241 12.5017 11.348 12.5526 11.2642 12.5874C11.1805 12.6222 11.0907 12.6401 11 12.6401C10.8169 12.6403 10.6413 12.5677 10.5117 12.4383C10.3821 12.3089 10.3092 12.1333 10.3091 11.9502C10.309 11.7671 10.3816 11.5914 10.511 11.4618L10.511 11.4604ZM8.55945 9.51027C8.62311 9.44436 8.69925 9.39179 8.78345 9.35563C8.86764 9.31946 8.95819 9.30042 9.04982 9.29963C9.14144 9.29883 9.23231 9.31629 9.31712 9.35099C9.40193 9.38568 9.47898 9.43693 9.54377 9.50172C9.60856 9.56651 9.6598 9.64356 9.6945 9.72837C9.7292 9.81318 9.74666 9.90404 9.74586 9.99567C9.74507 10.0873 9.72603 10.1779 9.68986 10.262C9.6537 10.3462 9.60113 10.4224 9.53522 10.486C9.40507 10.6117 9.23075 10.6813 9.04982 10.6797C8.86888 10.6782 8.6958 10.6056 8.56786 10.4776C8.43991 10.3497 8.36734 10.1766 8.36576 9.99567C8.36419 9.81474 8.43375 9.64042 8.55945 9.51027Z" fill="#181B80"/>
<path d="M50.248 18.48C50.7147 18.592 50.948 18.8813 50.948 19.348V21H45.376V11.872C45.376 10.9387 45.18 10.248 44.788 9.8C44.396 9.33333 43.808 9.1 43.024 9.1C42.7067 9.1 42.3707 9.16533 42.016 9.296C41.7173 9.408 41.456 9.576 41.232 9.8C41.0453 9.98667 40.868 10.276 40.7 10.668C40.5693 10.9853 40.504 11.3867 40.504 11.872V18.228L41.316 18.368L41.736 18.452L41.904 18.48C42.3707 18.592 42.604 18.8813 42.604 19.348V21H37.032V11.872C37.032 10.92 36.836 10.22 36.444 9.772C36.052 9.324 35.4827 9.1 34.736 9.1C34.232 9.1 33.7653 9.22133 33.336 9.464C32.944 9.688 32.5427 10.0333 32.132 10.5V18.228L32.944 18.368L33.364 18.452L33.532 18.48C33.9987 18.592 34.232 18.8813 34.232 19.348V21H26.56V19.348C26.56 18.8813 26.7933 18.592 27.26 18.48L27.428 18.452C27.484 18.452 27.54 18.4427 27.596 18.424C27.6707 18.4053 27.7547 18.3867 27.848 18.368L28.66 18.228V9.408L27.848 9.268C27.7547 9.24933 27.6707 9.23067 27.596 9.212C27.54 9.19333 27.484 9.184 27.428 9.184L27.26 9.156C26.7747 9.044 26.532 8.75467 26.532 8.288V6.636H30.788C31.2173 6.636 31.5067 6.85067 31.656 7.28L31.88 8.344C32.216 7.97067 32.4773 7.70933 32.664 7.56C32.9253 7.35467 33.224 7.15867 33.56 6.972C33.8587 6.804 34.1947 6.664 34.568 6.552C34.8667 6.45867 35.2587 6.412 35.744 6.412C36.6773 6.412 37.424 6.65467 37.984 7.14C38.5813 7.66267 39.02 8.316 39.3 9.1C39.524 8.61467 39.804 8.204 40.14 7.868C40.4387 7.56933 40.8027 7.29867 41.232 7.056C41.5493 6.86933 41.9787 6.71067 42.52 6.58C42.968 6.468 43.4253 6.412 43.892 6.412C44.6947 6.412 45.3947 6.53333 45.992 6.776C46.6453 7.03733 47.168 7.392 47.56 7.84C47.9707 8.30667 48.288 8.876 48.512 9.548C48.736 10.22 48.848 10.9947 48.848 11.872V18.228L49.66 18.368C49.7533 18.3867 49.828 18.4053 49.884 18.424C49.9587 18.4427 50.024 18.452 50.08 18.452L50.248 18.48ZM57.9804 6.412C58.895 6.412 59.7257 6.552 60.4724 6.832C61.1817 7.09333 61.835 7.52267 62.4324 8.12C62.9737 8.66133 63.403 9.34267 63.7204 10.164C64.0377 11.004 64.1964 11.9187 64.1964 12.908C64.1964 13.132 64.1777 13.356 64.1404 13.58C64.103 13.7853 64.0657 13.916 64.0284 13.972C63.991 14.0653 63.907 14.14 63.7764 14.196C63.7017 14.2333 63.571 14.252 63.3844 14.252H54.5084C54.6204 15.7267 55.0217 16.8093 55.7124 17.5C56.403 18.1907 57.3177 18.536 58.4564 18.536C59.035 18.536 59.511 18.4707 59.8844 18.34C60.295 18.2093 60.6497 18.06 60.9484 17.892C61.079 17.8173 61.2097 17.752 61.3404 17.696C61.4897 17.6213 61.6297 17.5467 61.7604 17.472C61.9657 17.3413 62.1804 17.276 62.4044 17.276C62.5537 17.276 62.6844 17.304 62.7964 17.36C62.8897 17.3973 62.9737 17.472 63.0484 17.584L64.0564 18.844C63.627 19.3293 63.1977 19.712 62.7684 19.992C62.2644 20.3093 61.7697 20.552 61.2844 20.72C60.8177 20.8693 60.2857 20.9907 59.6884 21.084C59.2217 21.1587 58.699 21.196 58.1204 21.196C57.0937 21.196 56.1697 21.0373 55.3484 20.72C54.527 20.4027 53.7804 19.908 53.1084 19.236C52.4737 18.6013 51.9697 17.7987 51.5964 16.828C51.2417 15.8947 51.0644 14.784 51.0644 13.496C51.0644 12.5627 51.223 11.648 51.5404 10.752C51.839 9.912 52.2964 9.156 52.9124 8.484C53.491 7.84933 54.2097 7.34533 55.0684 6.972C55.927 6.59867 56.8977 6.412 57.9804 6.412ZM58.0364 8.876C57.047 8.876 56.263 9.16533 55.6844 9.744C55.1244 10.304 54.7604 11.1067 54.5924 12.152H61.0884C61.0884 11.76 61.023 11.34 60.8924 10.892C60.7804 10.5373 60.5937 10.192 60.3324 9.856C60.0897 9.55733 59.7724 9.324 59.3804 9.156C58.951 8.96933 58.503 8.876 58.0364 8.876ZM75.285 20.944C75.0797 20.944 74.893 20.888 74.725 20.776C74.5757 20.6827 74.473 20.524 74.417 20.3L74.137 18.984C73.577 19.6187 72.9144 20.1507 72.149 20.58C71.4024 20.9907 70.5157 21.196 69.489 21.196C68.6864 21.196 67.977 21.0373 67.361 20.72C66.7077 20.384 66.1477 19.908 65.681 19.292C65.2144 18.6947 64.8504 17.9293 64.589 16.996C64.3277 16.044 64.197 14.9987 64.197 13.86C64.197 12.796 64.337 11.8067 64.617 10.892C64.8784 10.0333 65.2984 9.24 65.877 8.512C66.381 7.87733 67.025 7.35467 67.809 6.944C68.5557 6.552 69.405 6.356 70.357 6.356C71.1597 6.356 71.8504 6.48667 72.429 6.748C73.045 7.028 73.549 7.364 73.941 7.756V2.968L73.129 2.828C73.0357 2.80933 72.9517 2.79067 72.877 2.772C72.821 2.75333 72.765 2.744 72.709 2.744L72.541 2.716C72.0744 2.604 71.841 2.31467 71.841 1.848V0.195999H77.413V18.2L78.141 18.312L78.505 18.396L78.673 18.424C79.1397 18.536 79.373 18.8253 79.373 19.292V20.944H75.285ZM73.969 10.304C73.5957 9.83733 73.1664 9.50133 72.681 9.296C72.177 9.09067 71.673 8.988 71.169 8.988C70.6837 8.988 70.217 9.09067 69.769 9.296C69.3584 9.48267 68.9944 9.78133 68.677 10.192C68.397 10.584 68.173 11.088 68.005 11.704C67.8557 12.2453 67.781 12.964 67.781 13.86C67.781 14.756 67.8464 15.4747 67.977 16.016C68.1077 16.576 68.3037 17.0427 68.565 17.416C68.8264 17.808 69.125 18.0787 69.461 18.228C69.8157 18.396 70.2264 18.48 70.693 18.48C71.4397 18.48 72.0557 18.3307 72.541 18.032C73.0637 17.7147 73.5397 17.2853 73.969 16.744V10.304ZM85.5958 2.436C85.5958 2.69733 85.5305 2.97733 85.3998 3.276C85.2878 3.53733 85.1291 3.77067 84.9238 3.976C84.6998 4.2 84.4665 4.35867 84.2238 4.452C83.9438 4.564 83.6545 4.62 83.3558 4.62C83.0571 4.62 82.7678 4.564 82.4878 4.452C82.2638 4.35867 82.0398 4.2 81.8158 3.976C81.6105 3.77067 81.4518 3.53733 81.3398 3.276C81.2278 3.01467 81.1718 2.73467 81.1718 2.436C81.1718 2.13733 81.2278 1.848 81.3398 1.568C81.4331 1.32533 81.5918 1.092 81.8158 0.867999C82.0211 0.662666 82.2451 0.513333 82.4878 0.42C82.8238 0.289332 83.1131 0.223999 83.3558 0.223999C83.5985 0.223999 83.8878 0.289332 84.2238 0.42C84.5038 0.531999 84.7371 0.681332 84.9238 0.867999C85.1478 1.092 85.3065 1.32533 85.3998 1.568C85.5305 1.88533 85.5958 2.17467 85.5958 2.436ZM86.4918 18.48C86.9585 18.592 87.1918 18.8813 87.1918 19.348V21H79.4918V19.348C79.4918 18.8813 79.7251 18.592 80.1918 18.48L80.3598 18.452L80.7798 18.368L81.6198 18.228V9.408L80.7798 9.268C80.6865 9.24933 80.6025 9.23067 80.5278 9.212C80.4718 9.19333 80.4158 9.184 80.3598 9.184L80.1918 9.156C79.7251 9.044 79.4918 8.75467 79.4918 8.288V6.636H85.0638V18.228L85.9038 18.368C85.9971 18.3867 86.0718 18.4053 86.1278 18.424C86.2025 18.4427 86.2678 18.452 86.3238 18.452L86.4918 18.48ZM101.992 23.184C102.458 23.296 102.692 23.5853 102.692 24.052V25.704H94.8798V24.052C94.8798 23.5853 95.1131 23.296 95.5798 23.184L95.7478 23.156L96.1678 23.072L96.9798 22.932V19.208C96.4571 19.768 95.8131 20.244 95.0478 20.636C94.3011 21.0093 93.4611 21.196 92.5278 21.196C91.7625 21.196 91.0531 21.028 90.3998 20.692C89.7278 20.3373 89.1678 19.8707 88.7198 19.292C88.2345 18.676 87.8705 17.92 87.6278 17.024C87.3665 16.0907 87.2358 15.0453 87.2358 13.888C87.2358 12.824 87.3758 11.8347 87.6558 10.92C87.9171 10.0613 88.3371 9.268 88.9158 8.54C89.4758 7.83067 90.1198 7.29867 90.8478 6.944C91.5758 6.57067 92.4251 6.384 93.3958 6.384C95.5051 6.384 97.8571 6.64533 100.452 7.168V22.932L101.32 23.072C101.432 23.0907 101.525 23.1093 101.6 23.128C101.674 23.1467 101.73 23.156 101.768 23.156L101.992 23.184ZM95.5798 18.032C96.0838 17.7147 96.5505 17.2947 96.9798 16.772V9.296C95.9531 9.10933 95.0291 9.016 94.2078 9.016C93.7038 9.016 93.2278 9.11867 92.7798 9.324C92.3505 9.52933 91.9958 9.828 91.7158 10.22C91.4545 10.556 91.2305 11.06 91.0438 11.732C90.8758 12.348 90.7918 13.0667 90.7918 13.888C90.7918 14.672 90.8665 15.3813 91.0158 16.016C91.1651 16.6507 91.3518 17.1267 91.5758 17.444C91.8371 17.8173 92.1451 18.088 92.4998 18.256C92.8545 18.424 93.2651 18.508 93.7318 18.508C94.4411 18.508 95.0571 18.3493 95.5798 18.032ZM110.227 14H102.947V11.088H110.227V14ZM116.791 2.436C116.791 2.69733 116.725 2.97733 116.595 3.276C116.483 3.53733 116.324 3.77067 116.119 3.976C115.895 4.2 115.661 4.35867 115.419 4.452C115.139 4.564 114.849 4.62 114.551 4.62C114.252 4.62 113.963 4.564 113.683 4.452C113.459 4.35867 113.235 4.2 113.011 3.976C112.805 3.77067 112.647 3.53733 112.535 3.276C112.423 3.01467 112.367 2.73467 112.367 2.436C112.367 2.13733 112.423 1.848 112.535 1.568C112.628 1.32533 112.787 1.092 113.011 0.867999C113.216 0.662666 113.44 0.513333 113.683 0.42C114.019 0.289332 114.308 0.223999 114.551 0.223999C114.793 0.223999 115.083 0.289332 115.419 0.42C115.699 0.531999 115.932 0.681332 116.119 0.867999C116.343 1.092 116.501 1.32533 116.595 1.568C116.725 1.88533 116.791 2.17467 116.791 2.436ZM117.687 18.48C118.153 18.592 118.387 18.8813 118.387 19.348V21H110.687V19.348C110.687 18.8813 110.92 18.592 111.387 18.48L111.555 18.452L111.975 18.368L112.815 18.228V9.408L111.975 9.268C111.881 9.24933 111.797 9.23067 111.723 9.212C111.667 9.19333 111.611 9.184 111.555 9.184L111.387 9.156C110.92 9.044 110.687 8.75467 110.687 8.288V6.636H116.259V18.228L117.099 18.368C117.192 18.3867 117.267 18.4053 117.323 18.424C117.397 18.4427 117.463 18.452 117.519 18.452L117.687 18.48Z" fill="#181B80"/>
</svg>
